<mxfile host="Electron" modified="2024-07-05T03:30:03.945Z" agent="Mozilla/5.0 (X11; Linux x86_64) AppleWebKit/537.36 (KHTML, like Gecko) draw.io/24.2.5 Chrome/120.0.6099.109 Electron/28.1.0 Safari/537.36" etag="KuRdYkFg5a6IWwzQl7Nf" version="24.2.5" type="device">
  <diagram name="Page-1" id="UswiV8kJdXYd4FI-y-HA">
    <mxGraphModel dx="1434" dy="835" grid="1" gridSize="10" guides="1" tooltips="1" connect="1" arrows="1" fold="1" page="1" pageScale="1" pageWidth="850" pageHeight="1100" math="0" shadow="0">
      <root>
        <mxCell id="0" />
        <mxCell id="1" parent="0" />
        <mxCell id="gYxAc6ppp29BtzVol7dR-1" value="1" style="rounded=0;whiteSpace=wrap;html=1;shadow=0;strokeColor=#6c8ebf;strokeWidth=1;fontFamily=Ubuntu;fontSize=16;fontStyle=0;fillColor=#dae8fc;" vertex="1" parent="1">
          <mxGeometry x="320" y="440" width="40" height="40" as="geometry" />
        </mxCell>
        <mxCell id="gYxAc6ppp29BtzVol7dR-2" value="8" style="rounded=0;whiteSpace=wrap;html=1;shadow=0;strokeColor=#6c8ebf;strokeWidth=1;fontFamily=Ubuntu;fontSize=16;fontStyle=0;fillColor=#dae8fc;" vertex="1" parent="1">
          <mxGeometry x="360" y="440" width="40" height="40" as="geometry" />
        </mxCell>
        <mxCell id="gYxAc6ppp29BtzVol7dR-3" value="3" style="rounded=0;whiteSpace=wrap;html=1;shadow=0;strokeColor=#6c8ebf;strokeWidth=1;fontFamily=Ubuntu;fontSize=16;fontStyle=0;fillColor=#dae8fc;" vertex="1" parent="1">
          <mxGeometry x="400" y="440" width="40" height="40" as="geometry" />
        </mxCell>
        <mxCell id="gYxAc6ppp29BtzVol7dR-4" value="9" style="rounded=0;whiteSpace=wrap;html=1;shadow=0;strokeColor=#6c8ebf;strokeWidth=1;fontFamily=Ubuntu;fontSize=16;fontStyle=0;fillColor=#dae8fc;" vertex="1" parent="1">
          <mxGeometry x="440" y="440" width="40" height="40" as="geometry" />
        </mxCell>
        <mxCell id="gYxAc6ppp29BtzVol7dR-37" style="edgeStyle=orthogonalEdgeStyle;rounded=1;orthogonalLoop=1;jettySize=auto;html=1;entryX=0;entryY=0.5;entryDx=0;entryDy=0;shadow=0;strokeColor=#6c8ebf;strokeWidth=1;fontFamily=Ubuntu;fontSize=14;fontStyle=0;endArrow=block;endFill=1;fillColor=#dae8fc;" edge="1" parent="1" source="gYxAc6ppp29BtzVol7dR-5" target="gYxAc6ppp29BtzVol7dR-14">
          <mxGeometry relative="1" as="geometry" />
        </mxCell>
        <mxCell id="gYxAc6ppp29BtzVol7dR-38" style="edgeStyle=orthogonalEdgeStyle;rounded=1;orthogonalLoop=1;jettySize=auto;html=1;entryX=0.5;entryY=1;entryDx=0;entryDy=0;shadow=0;strokeColor=#6c8ebf;strokeWidth=1;fontFamily=Ubuntu;fontSize=14;fontStyle=0;endArrow=block;endFill=1;fillColor=#dae8fc;exitX=0.5;exitY=1;exitDx=0;exitDy=0;startArrow=block;startFill=1;" edge="1" parent="1" source="gYxAc6ppp29BtzVol7dR-5" target="gYxAc6ppp29BtzVol7dR-1">
          <mxGeometry relative="1" as="geometry" />
        </mxCell>
        <mxCell id="gYxAc6ppp29BtzVol7dR-5" value="4" style="rounded=0;whiteSpace=wrap;html=1;shadow=0;strokeColor=#82b366;strokeWidth=1;fontFamily=Ubuntu;fontSize=16;fontStyle=0;fillColor=#d5e8d4;" vertex="1" parent="1">
          <mxGeometry x="480" y="440" width="40" height="40" as="geometry" />
        </mxCell>
        <mxCell id="gYxAc6ppp29BtzVol7dR-7" style="edgeStyle=orthogonalEdgeStyle;rounded=1;orthogonalLoop=1;jettySize=auto;html=1;shadow=0;strokeColor=#6c8ebf;strokeWidth=1;fontFamily=Ubuntu;fontSize=14;fontStyle=0;endArrow=block;endFill=1;fillColor=#dae8fc;" edge="1" parent="1" source="gYxAc6ppp29BtzVol7dR-6" target="gYxAc6ppp29BtzVol7dR-5">
          <mxGeometry relative="1" as="geometry" />
        </mxCell>
        <mxCell id="gYxAc6ppp29BtzVol7dR-6" value="pivot" style="text;html=1;align=center;verticalAlign=middle;whiteSpace=wrap;rounded=0;fontFamily=Ubuntu;fontSize=16;fontStyle=0;" vertex="1" parent="1">
          <mxGeometry x="470" y="380" width="60" height="30" as="geometry" />
        </mxCell>
        <mxCell id="gYxAc6ppp29BtzVol7dR-13" style="edgeStyle=orthogonalEdgeStyle;rounded=1;orthogonalLoop=1;jettySize=auto;html=1;shadow=0;strokeColor=#6c8ebf;strokeWidth=1;fontFamily=Ubuntu;fontSize=14;fontStyle=0;endArrow=block;endFill=1;fillColor=#dae8fc;" edge="1" parent="1" source="gYxAc6ppp29BtzVol7dR-10" target="gYxAc6ppp29BtzVol7dR-1">
          <mxGeometry relative="1" as="geometry" />
        </mxCell>
        <mxCell id="gYxAc6ppp29BtzVol7dR-10" value="i" style="text;html=1;align=center;verticalAlign=middle;whiteSpace=wrap;rounded=0;fontFamily=Ubuntu;fontSize=16;fontStyle=0;" vertex="1" parent="1">
          <mxGeometry x="320" y="380" width="40" height="30" as="geometry" />
        </mxCell>
        <mxCell id="gYxAc6ppp29BtzVol7dR-14" value="1" style="rounded=0;whiteSpace=wrap;html=1;shadow=0;strokeColor=#b85450;strokeWidth=1;fontFamily=Ubuntu;fontSize=16;fontStyle=0;fillColor=#f8cecc;" vertex="1" parent="1">
          <mxGeometry x="640" y="440" width="40" height="40" as="geometry" />
        </mxCell>
        <mxCell id="gYxAc6ppp29BtzVol7dR-15" value="8" style="rounded=0;whiteSpace=wrap;html=1;shadow=0;strokeColor=#6c8ebf;strokeWidth=1;fontFamily=Ubuntu;fontSize=16;fontStyle=0;fillColor=#dae8fc;" vertex="1" parent="1">
          <mxGeometry x="680" y="440" width="40" height="40" as="geometry" />
        </mxCell>
        <mxCell id="gYxAc6ppp29BtzVol7dR-16" value="3" style="rounded=0;whiteSpace=wrap;html=1;shadow=0;strokeColor=#6c8ebf;strokeWidth=1;fontFamily=Ubuntu;fontSize=16;fontStyle=0;fillColor=#dae8fc;" vertex="1" parent="1">
          <mxGeometry x="720" y="440" width="40" height="40" as="geometry" />
        </mxCell>
        <mxCell id="gYxAc6ppp29BtzVol7dR-17" value="9" style="rounded=0;whiteSpace=wrap;html=1;shadow=0;strokeColor=#6c8ebf;strokeWidth=1;fontFamily=Ubuntu;fontSize=16;fontStyle=0;fillColor=#dae8fc;" vertex="1" parent="1">
          <mxGeometry x="760" y="440" width="40" height="40" as="geometry" />
        </mxCell>
        <mxCell id="gYxAc6ppp29BtzVol7dR-81" style="edgeStyle=orthogonalEdgeStyle;rounded=1;orthogonalLoop=1;jettySize=auto;html=1;entryX=0;entryY=0.5;entryDx=0;entryDy=0;shadow=0;strokeColor=#6c8ebf;strokeWidth=1;fontFamily=Ubuntu;fontSize=14;fontStyle=0;endArrow=block;endFill=1;fillColor=#dae8fc;" edge="1" parent="1" source="gYxAc6ppp29BtzVol7dR-18" target="gYxAc6ppp29BtzVol7dR-71">
          <mxGeometry relative="1" as="geometry" />
        </mxCell>
        <mxCell id="gYxAc6ppp29BtzVol7dR-18" value="4" style="rounded=0;whiteSpace=wrap;html=1;shadow=0;strokeColor=#82b366;strokeWidth=1;fontFamily=Ubuntu;fontSize=16;fontStyle=0;fillColor=#d5e8d4;" vertex="1" parent="1">
          <mxGeometry x="800" y="440" width="40" height="40" as="geometry" />
        </mxCell>
        <mxCell id="gYxAc6ppp29BtzVol7dR-19" style="edgeStyle=orthogonalEdgeStyle;rounded=1;orthogonalLoop=1;jettySize=auto;html=1;shadow=0;strokeColor=#6c8ebf;strokeWidth=1;fontFamily=Ubuntu;fontSize=14;fontStyle=0;endArrow=block;endFill=1;fillColor=#dae8fc;" edge="1" source="gYxAc6ppp29BtzVol7dR-20" target="gYxAc6ppp29BtzVol7dR-18" parent="1">
          <mxGeometry relative="1" as="geometry" />
        </mxCell>
        <mxCell id="gYxAc6ppp29BtzVol7dR-20" value="pivot" style="text;html=1;align=center;verticalAlign=middle;whiteSpace=wrap;rounded=0;fontFamily=Ubuntu;fontSize=16;fontStyle=0;" vertex="1" parent="1">
          <mxGeometry x="790" y="380" width="60" height="30" as="geometry" />
        </mxCell>
        <mxCell id="gYxAc6ppp29BtzVol7dR-25" style="edgeStyle=orthogonalEdgeStyle;rounded=1;orthogonalLoop=1;jettySize=auto;html=1;entryX=0.25;entryY=1;entryDx=0;entryDy=0;shadow=0;strokeColor=#6c8ebf;strokeWidth=1;fontFamily=Ubuntu;fontSize=14;fontStyle=0;endArrow=block;endFill=1;fillColor=#dae8fc;exitX=0.75;exitY=1;exitDx=0;exitDy=0;" edge="1" parent="1" source="gYxAc6ppp29BtzVol7dR-14" target="gYxAc6ppp29BtzVol7dR-14">
          <mxGeometry relative="1" as="geometry">
            <Array as="points">
              <mxPoint x="670" y="510" />
              <mxPoint x="650" y="510" />
            </Array>
          </mxGeometry>
        </mxCell>
        <mxCell id="gYxAc6ppp29BtzVol7dR-26" value="1" style="rounded=0;whiteSpace=wrap;html=1;shadow=0;strokeColor=#6c8ebf;strokeWidth=1;fontFamily=Ubuntu;fontSize=16;fontStyle=0;fillColor=#dae8fc;" vertex="1" parent="1">
          <mxGeometry x="320" y="640" width="40" height="40" as="geometry" />
        </mxCell>
        <mxCell id="gYxAc6ppp29BtzVol7dR-27" value="8" style="rounded=0;whiteSpace=wrap;html=1;shadow=0;strokeColor=#6c8ebf;strokeWidth=1;fontFamily=Ubuntu;fontSize=16;fontStyle=0;fillColor=#dae8fc;" vertex="1" parent="1">
          <mxGeometry x="360" y="640" width="40" height="40" as="geometry" />
        </mxCell>
        <mxCell id="gYxAc6ppp29BtzVol7dR-28" value="3" style="rounded=0;whiteSpace=wrap;html=1;shadow=0;strokeColor=#6c8ebf;strokeWidth=1;fontFamily=Ubuntu;fontSize=16;fontStyle=0;fillColor=#dae8fc;" vertex="1" parent="1">
          <mxGeometry x="400" y="640" width="40" height="40" as="geometry" />
        </mxCell>
        <mxCell id="gYxAc6ppp29BtzVol7dR-29" value="9" style="rounded=0;whiteSpace=wrap;html=1;shadow=0;strokeColor=#6c8ebf;strokeWidth=1;fontFamily=Ubuntu;fontSize=16;fontStyle=0;fillColor=#dae8fc;" vertex="1" parent="1">
          <mxGeometry x="440" y="640" width="40" height="40" as="geometry" />
        </mxCell>
        <mxCell id="gYxAc6ppp29BtzVol7dR-39" style="edgeStyle=orthogonalEdgeStyle;rounded=1;orthogonalLoop=1;jettySize=auto;html=1;entryX=0.5;entryY=1;entryDx=0;entryDy=0;shadow=0;strokeColor=#6c8ebf;strokeWidth=1;fontFamily=Ubuntu;fontSize=14;fontStyle=0;endArrow=block;endFill=1;fillColor=#dae8fc;exitX=0.5;exitY=1;exitDx=0;exitDy=0;startArrow=block;startFill=1;" edge="1" parent="1" source="gYxAc6ppp29BtzVol7dR-30" target="gYxAc6ppp29BtzVol7dR-27">
          <mxGeometry relative="1" as="geometry" />
        </mxCell>
        <mxCell id="gYxAc6ppp29BtzVol7dR-30" value="4" style="rounded=0;whiteSpace=wrap;html=1;shadow=0;strokeColor=#82b366;strokeWidth=1;fontFamily=Ubuntu;fontSize=16;fontStyle=0;fillColor=#d5e8d4;" vertex="1" parent="1">
          <mxGeometry x="480" y="640" width="40" height="40" as="geometry" />
        </mxCell>
        <mxCell id="gYxAc6ppp29BtzVol7dR-31" style="edgeStyle=orthogonalEdgeStyle;rounded=1;orthogonalLoop=1;jettySize=auto;html=1;shadow=0;strokeColor=#6c8ebf;strokeWidth=1;fontFamily=Ubuntu;fontSize=14;fontStyle=0;endArrow=block;endFill=1;fillColor=#dae8fc;" edge="1" source="gYxAc6ppp29BtzVol7dR-32" target="gYxAc6ppp29BtzVol7dR-30" parent="1">
          <mxGeometry relative="1" as="geometry" />
        </mxCell>
        <mxCell id="gYxAc6ppp29BtzVol7dR-32" value="pivot" style="text;html=1;align=center;verticalAlign=middle;whiteSpace=wrap;rounded=0;fontFamily=Ubuntu;fontSize=16;fontStyle=0;" vertex="1" parent="1">
          <mxGeometry x="470" y="580" width="60" height="30" as="geometry" />
        </mxCell>
        <mxCell id="gYxAc6ppp29BtzVol7dR-34" style="edgeStyle=orthogonalEdgeStyle;rounded=1;orthogonalLoop=1;jettySize=auto;html=1;shadow=0;strokeColor=#6c8ebf;strokeWidth=1;fontFamily=Ubuntu;fontSize=14;fontStyle=0;endArrow=block;endFill=1;fillColor=#dae8fc;entryX=0.5;entryY=0;entryDx=0;entryDy=0;" edge="1" source="gYxAc6ppp29BtzVol7dR-35" target="gYxAc6ppp29BtzVol7dR-27" parent="1">
          <mxGeometry relative="1" as="geometry">
            <mxPoint x="340" y="640" as="targetPoint" />
          </mxGeometry>
        </mxCell>
        <mxCell id="gYxAc6ppp29BtzVol7dR-35" value="i" style="text;html=1;align=center;verticalAlign=middle;whiteSpace=wrap;rounded=0;fontFamily=Ubuntu;fontSize=16;fontStyle=0;" vertex="1" parent="1">
          <mxGeometry x="360" y="580" width="40" height="30" as="geometry" />
        </mxCell>
        <mxCell id="gYxAc6ppp29BtzVol7dR-36" value="1 &amp;lt; 4" style="text;html=1;align=center;verticalAlign=middle;whiteSpace=wrap;rounded=0;fontFamily=Ubuntu;fontSize=16;fontStyle=0;" vertex="1" parent="1">
          <mxGeometry x="370" y="500" width="90" height="30" as="geometry" />
        </mxCell>
        <mxCell id="gYxAc6ppp29BtzVol7dR-40" value="8 &amp;gt; 4" style="text;html=1;align=center;verticalAlign=middle;whiteSpace=wrap;rounded=0;fontFamily=Ubuntu;fontSize=16;fontStyle=0;" vertex="1" parent="1">
          <mxGeometry x="400" y="700" width="90" height="30" as="geometry" />
        </mxCell>
        <mxCell id="gYxAc6ppp29BtzVol7dR-41" value="不需要交换元素" style="text;html=1;align=center;verticalAlign=middle;whiteSpace=wrap;rounded=0;fontFamily=Ubuntu;fontSize=16;fontStyle=0;" vertex="1" parent="1">
          <mxGeometry x="540" y="655" width="120" height="30" as="geometry" />
        </mxCell>
        <mxCell id="gYxAc6ppp29BtzVol7dR-42" value="1" style="rounded=0;whiteSpace=wrap;html=1;shadow=0;strokeColor=#6c8ebf;strokeWidth=1;fontFamily=Ubuntu;fontSize=16;fontStyle=0;fillColor=#dae8fc;" vertex="1" parent="1">
          <mxGeometry x="320" y="840" width="40" height="40" as="geometry" />
        </mxCell>
        <mxCell id="gYxAc6ppp29BtzVol7dR-43" value="8" style="rounded=0;whiteSpace=wrap;html=1;shadow=0;strokeColor=#6c8ebf;strokeWidth=1;fontFamily=Ubuntu;fontSize=16;fontStyle=0;fillColor=#dae8fc;" vertex="1" parent="1">
          <mxGeometry x="360" y="840" width="40" height="40" as="geometry" />
        </mxCell>
        <mxCell id="gYxAc6ppp29BtzVol7dR-44" value="3" style="rounded=0;whiteSpace=wrap;html=1;shadow=0;strokeColor=#6c8ebf;strokeWidth=1;fontFamily=Ubuntu;fontSize=16;fontStyle=0;fillColor=#dae8fc;" vertex="1" parent="1">
          <mxGeometry x="400" y="840" width="40" height="40" as="geometry" />
        </mxCell>
        <mxCell id="gYxAc6ppp29BtzVol7dR-45" value="9" style="rounded=0;whiteSpace=wrap;html=1;shadow=0;strokeColor=#6c8ebf;strokeWidth=1;fontFamily=Ubuntu;fontSize=16;fontStyle=0;fillColor=#dae8fc;" vertex="1" parent="1">
          <mxGeometry x="440" y="840" width="40" height="40" as="geometry" />
        </mxCell>
        <mxCell id="gYxAc6ppp29BtzVol7dR-46" style="edgeStyle=orthogonalEdgeStyle;rounded=1;orthogonalLoop=1;jettySize=auto;html=1;entryX=0.5;entryY=1;entryDx=0;entryDy=0;shadow=0;strokeColor=#6c8ebf;strokeWidth=1;fontFamily=Ubuntu;fontSize=14;fontStyle=0;endArrow=block;endFill=1;fillColor=#dae8fc;exitX=0.5;exitY=1;exitDx=0;exitDy=0;startArrow=block;startFill=1;" edge="1" source="gYxAc6ppp29BtzVol7dR-47" target="gYxAc6ppp29BtzVol7dR-44" parent="1">
          <mxGeometry relative="1" as="geometry" />
        </mxCell>
        <mxCell id="gYxAc6ppp29BtzVol7dR-66" style="edgeStyle=orthogonalEdgeStyle;rounded=1;orthogonalLoop=1;jettySize=auto;html=1;shadow=0;strokeColor=#6c8ebf;strokeWidth=1;fontFamily=Ubuntu;fontSize=14;fontStyle=0;endArrow=block;endFill=1;fillColor=#dae8fc;" edge="1" parent="1" source="gYxAc6ppp29BtzVol7dR-47" target="gYxAc6ppp29BtzVol7dR-57">
          <mxGeometry relative="1" as="geometry" />
        </mxCell>
        <mxCell id="gYxAc6ppp29BtzVol7dR-47" value="4" style="rounded=0;whiteSpace=wrap;html=1;shadow=0;strokeColor=#82b366;strokeWidth=1;fontFamily=Ubuntu;fontSize=16;fontStyle=0;fillColor=#d5e8d4;" vertex="1" parent="1">
          <mxGeometry x="480" y="840" width="40" height="40" as="geometry" />
        </mxCell>
        <mxCell id="gYxAc6ppp29BtzVol7dR-48" style="edgeStyle=orthogonalEdgeStyle;rounded=1;orthogonalLoop=1;jettySize=auto;html=1;shadow=0;strokeColor=#6c8ebf;strokeWidth=1;fontFamily=Ubuntu;fontSize=14;fontStyle=0;endArrow=block;endFill=1;fillColor=#dae8fc;" edge="1" source="gYxAc6ppp29BtzVol7dR-49" target="gYxAc6ppp29BtzVol7dR-47" parent="1">
          <mxGeometry relative="1" as="geometry" />
        </mxCell>
        <mxCell id="gYxAc6ppp29BtzVol7dR-49" value="pivot" style="text;html=1;align=center;verticalAlign=middle;whiteSpace=wrap;rounded=0;fontFamily=Ubuntu;fontSize=16;fontStyle=0;" vertex="1" parent="1">
          <mxGeometry x="470" y="780" width="60" height="30" as="geometry" />
        </mxCell>
        <mxCell id="gYxAc6ppp29BtzVol7dR-50" style="edgeStyle=orthogonalEdgeStyle;rounded=1;orthogonalLoop=1;jettySize=auto;html=1;shadow=0;strokeColor=#6c8ebf;strokeWidth=1;fontFamily=Ubuntu;fontSize=14;fontStyle=0;endArrow=block;endFill=1;fillColor=#dae8fc;entryX=0.5;entryY=0;entryDx=0;entryDy=0;" edge="1" source="gYxAc6ppp29BtzVol7dR-51" parent="1">
          <mxGeometry relative="1" as="geometry">
            <mxPoint x="380" y="840" as="targetPoint" />
          </mxGeometry>
        </mxCell>
        <mxCell id="gYxAc6ppp29BtzVol7dR-51" value="i" style="text;html=1;align=center;verticalAlign=middle;whiteSpace=wrap;rounded=0;fontFamily=Ubuntu;fontSize=16;fontStyle=0;" vertex="1" parent="1">
          <mxGeometry x="360" y="780" width="40" height="30" as="geometry" />
        </mxCell>
        <mxCell id="gYxAc6ppp29BtzVol7dR-52" value="3 &amp;lt; 4" style="text;html=1;align=center;verticalAlign=middle;whiteSpace=wrap;rounded=0;fontFamily=Ubuntu;fontSize=16;fontStyle=0;" vertex="1" parent="1">
          <mxGeometry x="415" y="900" width="90" height="30" as="geometry" />
        </mxCell>
        <mxCell id="gYxAc6ppp29BtzVol7dR-53" value="j = 0" style="text;html=1;align=center;verticalAlign=middle;whiteSpace=wrap;rounded=0;fontFamily=Ubuntu;fontSize=16;fontStyle=0;" vertex="1" parent="1">
          <mxGeometry x="240" y="445" width="60" height="30" as="geometry" />
        </mxCell>
        <mxCell id="gYxAc6ppp29BtzVol7dR-54" value="j = 1" style="text;html=1;align=center;verticalAlign=middle;whiteSpace=wrap;rounded=0;fontFamily=Ubuntu;fontSize=16;fontStyle=0;" vertex="1" parent="1">
          <mxGeometry x="240" y="645" width="60" height="30" as="geometry" />
        </mxCell>
        <mxCell id="gYxAc6ppp29BtzVol7dR-55" value="j = 2" style="text;html=1;align=center;verticalAlign=middle;whiteSpace=wrap;rounded=0;fontFamily=Ubuntu;fontSize=16;fontStyle=0;" vertex="1" parent="1">
          <mxGeometry x="240" y="845" width="60" height="30" as="geometry" />
        </mxCell>
        <mxCell id="gYxAc6ppp29BtzVol7dR-56" value="swap(i, j)" style="text;html=1;align=center;verticalAlign=middle;whiteSpace=wrap;rounded=0;fontFamily=Ubuntu;fontSize=16;fontStyle=0;" vertex="1" parent="1">
          <mxGeometry x="520" y="430" width="120" height="30" as="geometry" />
        </mxCell>
        <mxCell id="gYxAc6ppp29BtzVol7dR-57" value="1" style="rounded=0;whiteSpace=wrap;html=1;shadow=0;strokeColor=#6c8ebf;strokeWidth=1;fontFamily=Ubuntu;fontSize=16;fontStyle=0;fillColor=#dae8fc;" vertex="1" parent="1">
          <mxGeometry x="640" y="840" width="40" height="40" as="geometry" />
        </mxCell>
        <mxCell id="gYxAc6ppp29BtzVol7dR-58" value="8" style="rounded=0;whiteSpace=wrap;html=1;shadow=0;strokeColor=#b85450;strokeWidth=1;fontFamily=Ubuntu;fontSize=16;fontStyle=0;fillColor=#f8cecc;" vertex="1" parent="1">
          <mxGeometry x="680" y="840" width="40" height="40" as="geometry" />
        </mxCell>
        <mxCell id="gYxAc6ppp29BtzVol7dR-70" style="edgeStyle=orthogonalEdgeStyle;rounded=1;orthogonalLoop=1;jettySize=auto;html=1;entryX=0.5;entryY=1;entryDx=0;entryDy=0;shadow=0;strokeColor=#6c8ebf;strokeWidth=1;fontFamily=Ubuntu;fontSize=14;fontStyle=0;endArrow=block;endFill=1;fillColor=#dae8fc;exitX=0.5;exitY=1;exitDx=0;exitDy=0;startArrow=block;startFill=1;" edge="1" parent="1" source="gYxAc6ppp29BtzVol7dR-59" target="gYxAc6ppp29BtzVol7dR-58">
          <mxGeometry relative="1" as="geometry" />
        </mxCell>
        <mxCell id="gYxAc6ppp29BtzVol7dR-59" value="3" style="rounded=0;whiteSpace=wrap;html=1;shadow=0;strokeColor=#b85450;strokeWidth=1;fontFamily=Ubuntu;fontSize=16;fontStyle=0;fillColor=#f8cecc;" vertex="1" parent="1">
          <mxGeometry x="720" y="840" width="40" height="40" as="geometry" />
        </mxCell>
        <mxCell id="gYxAc6ppp29BtzVol7dR-60" value="9" style="rounded=0;whiteSpace=wrap;html=1;shadow=0;strokeColor=#6c8ebf;strokeWidth=1;fontFamily=Ubuntu;fontSize=16;fontStyle=0;fillColor=#dae8fc;" vertex="1" parent="1">
          <mxGeometry x="760" y="840" width="40" height="40" as="geometry" />
        </mxCell>
        <mxCell id="gYxAc6ppp29BtzVol7dR-104" style="edgeStyle=orthogonalEdgeStyle;rounded=1;orthogonalLoop=1;jettySize=auto;html=1;entryX=0;entryY=0.5;entryDx=0;entryDy=0;shadow=0;strokeColor=#6c8ebf;strokeWidth=1;fontFamily=Ubuntu;fontSize=14;fontStyle=0;endArrow=block;endFill=1;fillColor=#dae8fc;" edge="1" parent="1" source="gYxAc6ppp29BtzVol7dR-61" target="gYxAc6ppp29BtzVol7dR-93">
          <mxGeometry relative="1" as="geometry" />
        </mxCell>
        <mxCell id="gYxAc6ppp29BtzVol7dR-61" value="4" style="rounded=0;whiteSpace=wrap;html=1;shadow=0;strokeColor=#82b366;strokeWidth=1;fontFamily=Ubuntu;fontSize=16;fontStyle=0;fillColor=#d5e8d4;" vertex="1" parent="1">
          <mxGeometry x="800" y="840" width="40" height="40" as="geometry" />
        </mxCell>
        <mxCell id="gYxAc6ppp29BtzVol7dR-62" style="edgeStyle=orthogonalEdgeStyle;rounded=1;orthogonalLoop=1;jettySize=auto;html=1;shadow=0;strokeColor=#6c8ebf;strokeWidth=1;fontFamily=Ubuntu;fontSize=14;fontStyle=0;endArrow=block;endFill=1;fillColor=#dae8fc;" edge="1" source="gYxAc6ppp29BtzVol7dR-63" target="gYxAc6ppp29BtzVol7dR-61" parent="1">
          <mxGeometry relative="1" as="geometry" />
        </mxCell>
        <mxCell id="gYxAc6ppp29BtzVol7dR-63" value="pivot" style="text;html=1;align=center;verticalAlign=middle;whiteSpace=wrap;rounded=0;fontFamily=Ubuntu;fontSize=16;fontStyle=0;" vertex="1" parent="1">
          <mxGeometry x="790" y="780" width="60" height="30" as="geometry" />
        </mxCell>
        <mxCell id="gYxAc6ppp29BtzVol7dR-71" value="1" style="rounded=0;whiteSpace=wrap;html=1;shadow=0;strokeColor=#6c8ebf;strokeWidth=1;fontFamily=Ubuntu;fontSize=16;fontStyle=0;fillColor=#dae8fc;" vertex="1" parent="1">
          <mxGeometry x="960" y="440" width="40" height="40" as="geometry" />
        </mxCell>
        <mxCell id="gYxAc6ppp29BtzVol7dR-72" value="8" style="rounded=0;whiteSpace=wrap;html=1;shadow=0;strokeColor=#b85450;strokeWidth=1;fontFamily=Ubuntu;fontSize=16;fontStyle=0;fillColor=#f8cecc;" vertex="1" parent="1">
          <mxGeometry x="1000" y="440" width="40" height="40" as="geometry" />
        </mxCell>
        <mxCell id="gYxAc6ppp29BtzVol7dR-73" value="3" style="rounded=0;whiteSpace=wrap;html=1;shadow=0;strokeColor=#6c8ebf;strokeWidth=1;fontFamily=Ubuntu;fontSize=16;fontStyle=0;fillColor=#dae8fc;" vertex="1" parent="1">
          <mxGeometry x="1040" y="440" width="40" height="40" as="geometry" />
        </mxCell>
        <mxCell id="gYxAc6ppp29BtzVol7dR-74" value="9" style="rounded=0;whiteSpace=wrap;html=1;shadow=0;strokeColor=#6c8ebf;strokeWidth=1;fontFamily=Ubuntu;fontSize=16;fontStyle=0;fillColor=#dae8fc;" vertex="1" parent="1">
          <mxGeometry x="1080" y="440" width="40" height="40" as="geometry" />
        </mxCell>
        <mxCell id="gYxAc6ppp29BtzVol7dR-75" value="4" style="rounded=0;whiteSpace=wrap;html=1;shadow=0;strokeColor=#82b366;strokeWidth=1;fontFamily=Ubuntu;fontSize=16;fontStyle=0;fillColor=#d5e8d4;" vertex="1" parent="1">
          <mxGeometry x="1120" y="440" width="40" height="40" as="geometry" />
        </mxCell>
        <mxCell id="gYxAc6ppp29BtzVol7dR-76" style="edgeStyle=orthogonalEdgeStyle;rounded=1;orthogonalLoop=1;jettySize=auto;html=1;shadow=0;strokeColor=#6c8ebf;strokeWidth=1;fontFamily=Ubuntu;fontSize=14;fontStyle=0;endArrow=block;endFill=1;fillColor=#dae8fc;" edge="1" source="gYxAc6ppp29BtzVol7dR-77" target="gYxAc6ppp29BtzVol7dR-75" parent="1">
          <mxGeometry relative="1" as="geometry" />
        </mxCell>
        <mxCell id="gYxAc6ppp29BtzVol7dR-77" value="pivot" style="text;html=1;align=center;verticalAlign=middle;whiteSpace=wrap;rounded=0;fontFamily=Ubuntu;fontSize=16;fontStyle=0;" vertex="1" parent="1">
          <mxGeometry x="1110" y="380" width="60" height="30" as="geometry" />
        </mxCell>
        <mxCell id="gYxAc6ppp29BtzVol7dR-79" style="edgeStyle=orthogonalEdgeStyle;rounded=1;orthogonalLoop=1;jettySize=auto;html=1;shadow=0;strokeColor=#6c8ebf;strokeWidth=1;fontFamily=Ubuntu;fontSize=14;fontStyle=0;endArrow=block;endFill=1;fillColor=#dae8fc;" edge="1" source="gYxAc6ppp29BtzVol7dR-80" parent="1">
          <mxGeometry relative="1" as="geometry">
            <mxPoint x="1020" y="440" as="targetPoint" />
          </mxGeometry>
        </mxCell>
        <mxCell id="gYxAc6ppp29BtzVol7dR-80" value="i" style="text;html=1;align=center;verticalAlign=middle;whiteSpace=wrap;rounded=0;fontFamily=Ubuntu;fontSize=16;fontStyle=0;" vertex="1" parent="1">
          <mxGeometry x="1000" y="380" width="40" height="30" as="geometry" />
        </mxCell>
        <mxCell id="gYxAc6ppp29BtzVol7dR-82" value="swap(i, j)" style="text;html=1;align=center;verticalAlign=middle;whiteSpace=wrap;rounded=0;fontFamily=Ubuntu;fontSize=16;fontStyle=0;" vertex="1" parent="1">
          <mxGeometry x="520" y="830" width="120" height="30" as="geometry" />
        </mxCell>
        <mxCell id="gYxAc6ppp29BtzVol7dR-83" value="i += 1" style="text;html=1;align=center;verticalAlign=middle;whiteSpace=wrap;rounded=0;fontFamily=Ubuntu;fontSize=16;fontStyle=0;" vertex="1" parent="1">
          <mxGeometry x="840" y="430" width="120" height="30" as="geometry" />
        </mxCell>
        <mxCell id="gYxAc6ppp29BtzVol7dR-84" style="edgeStyle=orthogonalEdgeStyle;rounded=1;orthogonalLoop=1;jettySize=auto;html=1;shadow=0;strokeColor=#6c8ebf;strokeWidth=1;fontFamily=Ubuntu;fontSize=14;fontStyle=0;endArrow=block;endFill=1;fillColor=#dae8fc;" edge="1" source="gYxAc6ppp29BtzVol7dR-85" parent="1">
          <mxGeometry relative="1" as="geometry">
            <mxPoint x="660" y="440" as="targetPoint" />
          </mxGeometry>
        </mxCell>
        <mxCell id="gYxAc6ppp29BtzVol7dR-85" value="i" style="text;html=1;align=center;verticalAlign=middle;whiteSpace=wrap;rounded=0;fontFamily=Ubuntu;fontSize=16;fontStyle=0;" vertex="1" parent="1">
          <mxGeometry x="640" y="380" width="40" height="30" as="geometry" />
        </mxCell>
        <mxCell id="gYxAc6ppp29BtzVol7dR-91" style="edgeStyle=orthogonalEdgeStyle;rounded=1;orthogonalLoop=1;jettySize=auto;html=1;shadow=0;strokeColor=#6c8ebf;strokeWidth=1;fontFamily=Ubuntu;fontSize=14;fontStyle=0;endArrow=block;endFill=1;fillColor=#dae8fc;entryX=0.5;entryY=0;entryDx=0;entryDy=0;" edge="1" source="gYxAc6ppp29BtzVol7dR-92" parent="1">
          <mxGeometry relative="1" as="geometry">
            <mxPoint x="700" y="840" as="targetPoint" />
          </mxGeometry>
        </mxCell>
        <mxCell id="gYxAc6ppp29BtzVol7dR-92" value="i" style="text;html=1;align=center;verticalAlign=middle;whiteSpace=wrap;rounded=0;fontFamily=Ubuntu;fontSize=16;fontStyle=0;" vertex="1" parent="1">
          <mxGeometry x="680" y="780" width="40" height="30" as="geometry" />
        </mxCell>
        <mxCell id="gYxAc6ppp29BtzVol7dR-93" value="1" style="rounded=0;whiteSpace=wrap;html=1;shadow=0;strokeColor=#6c8ebf;strokeWidth=1;fontFamily=Ubuntu;fontSize=16;fontStyle=0;fillColor=#dae8fc;" vertex="1" parent="1">
          <mxGeometry x="960" y="840" width="40" height="40" as="geometry" />
        </mxCell>
        <mxCell id="gYxAc6ppp29BtzVol7dR-94" value="3" style="rounded=0;whiteSpace=wrap;html=1;shadow=0;strokeColor=#6c8ebf;strokeWidth=1;fontFamily=Ubuntu;fontSize=16;fontStyle=0;fillColor=#dae8fc;" vertex="1" parent="1">
          <mxGeometry x="1000" y="840" width="40" height="40" as="geometry" />
        </mxCell>
        <mxCell id="gYxAc6ppp29BtzVol7dR-96" value="8" style="rounded=0;whiteSpace=wrap;html=1;shadow=0;strokeColor=#b85450;strokeWidth=1;fontFamily=Ubuntu;fontSize=16;fontStyle=0;fillColor=#f8cecc;" vertex="1" parent="1">
          <mxGeometry x="1040" y="840" width="40" height="40" as="geometry" />
        </mxCell>
        <mxCell id="gYxAc6ppp29BtzVol7dR-97" value="9" style="rounded=0;whiteSpace=wrap;html=1;shadow=0;strokeColor=#6c8ebf;strokeWidth=1;fontFamily=Ubuntu;fontSize=16;fontStyle=0;fillColor=#dae8fc;" vertex="1" parent="1">
          <mxGeometry x="1080" y="840" width="40" height="40" as="geometry" />
        </mxCell>
        <mxCell id="gYxAc6ppp29BtzVol7dR-98" value="4" style="rounded=0;whiteSpace=wrap;html=1;shadow=0;strokeColor=#82b366;strokeWidth=1;fontFamily=Ubuntu;fontSize=16;fontStyle=0;fillColor=#d5e8d4;" vertex="1" parent="1">
          <mxGeometry x="1120" y="840" width="40" height="40" as="geometry" />
        </mxCell>
        <mxCell id="gYxAc6ppp29BtzVol7dR-99" style="edgeStyle=orthogonalEdgeStyle;rounded=1;orthogonalLoop=1;jettySize=auto;html=1;shadow=0;strokeColor=#6c8ebf;strokeWidth=1;fontFamily=Ubuntu;fontSize=14;fontStyle=0;endArrow=block;endFill=1;fillColor=#dae8fc;" edge="1" source="gYxAc6ppp29BtzVol7dR-100" target="gYxAc6ppp29BtzVol7dR-98" parent="1">
          <mxGeometry relative="1" as="geometry" />
        </mxCell>
        <mxCell id="gYxAc6ppp29BtzVol7dR-100" value="pivot" style="text;html=1;align=center;verticalAlign=middle;whiteSpace=wrap;rounded=0;fontFamily=Ubuntu;fontSize=16;fontStyle=0;" vertex="1" parent="1">
          <mxGeometry x="1110" y="780" width="60" height="30" as="geometry" />
        </mxCell>
        <mxCell id="gYxAc6ppp29BtzVol7dR-101" style="edgeStyle=orthogonalEdgeStyle;rounded=1;orthogonalLoop=1;jettySize=auto;html=1;shadow=0;strokeColor=#6c8ebf;strokeWidth=1;fontFamily=Ubuntu;fontSize=14;fontStyle=0;endArrow=block;endFill=1;fillColor=#dae8fc;entryX=0.5;entryY=0;entryDx=0;entryDy=0;" edge="1" source="gYxAc6ppp29BtzVol7dR-102" parent="1">
          <mxGeometry relative="1" as="geometry">
            <mxPoint x="1060" y="840" as="targetPoint" />
          </mxGeometry>
        </mxCell>
        <mxCell id="gYxAc6ppp29BtzVol7dR-102" value="i" style="text;html=1;align=center;verticalAlign=middle;whiteSpace=wrap;rounded=0;fontFamily=Ubuntu;fontSize=16;fontStyle=0;" vertex="1" parent="1">
          <mxGeometry x="1040" y="780" width="40" height="30" as="geometry" />
        </mxCell>
        <mxCell id="gYxAc6ppp29BtzVol7dR-103" value="i += 1" style="text;html=1;align=center;verticalAlign=middle;whiteSpace=wrap;rounded=0;fontFamily=Ubuntu;fontSize=16;fontStyle=0;" vertex="1" parent="1">
          <mxGeometry x="850" y="830" width="120" height="30" as="geometry" />
        </mxCell>
        <mxCell id="gYxAc6ppp29BtzVol7dR-140" value="1" style="rounded=0;whiteSpace=wrap;html=1;shadow=0;strokeColor=#6c8ebf;strokeWidth=1;fontFamily=Ubuntu;fontSize=16;fontStyle=0;fillColor=#dae8fc;" vertex="1" parent="1">
          <mxGeometry x="320" y="1040" width="40" height="40" as="geometry" />
        </mxCell>
        <mxCell id="gYxAc6ppp29BtzVol7dR-141" value="8" style="rounded=0;whiteSpace=wrap;html=1;shadow=0;strokeColor=#6c8ebf;strokeWidth=1;fontFamily=Ubuntu;fontSize=16;fontStyle=0;fillColor=#dae8fc;" vertex="1" parent="1">
          <mxGeometry x="360" y="1040" width="40" height="40" as="geometry" />
        </mxCell>
        <mxCell id="gYxAc6ppp29BtzVol7dR-142" value="3" style="rounded=0;whiteSpace=wrap;html=1;shadow=0;strokeColor=#6c8ebf;strokeWidth=1;fontFamily=Ubuntu;fontSize=16;fontStyle=0;fillColor=#dae8fc;" vertex="1" parent="1">
          <mxGeometry x="400" y="1040" width="40" height="40" as="geometry" />
        </mxCell>
        <mxCell id="gYxAc6ppp29BtzVol7dR-143" value="9" style="rounded=0;whiteSpace=wrap;html=1;shadow=0;strokeColor=#6c8ebf;strokeWidth=1;fontFamily=Ubuntu;fontSize=16;fontStyle=0;fillColor=#dae8fc;" vertex="1" parent="1">
          <mxGeometry x="440" y="1040" width="40" height="40" as="geometry" />
        </mxCell>
        <mxCell id="gYxAc6ppp29BtzVol7dR-144" style="edgeStyle=orthogonalEdgeStyle;rounded=1;orthogonalLoop=1;jettySize=auto;html=1;entryX=0.5;entryY=1;entryDx=0;entryDy=0;shadow=0;strokeColor=#6c8ebf;strokeWidth=1;fontFamily=Ubuntu;fontSize=14;fontStyle=0;endArrow=block;endFill=1;fillColor=#dae8fc;exitX=0.5;exitY=1;exitDx=0;exitDy=0;startArrow=block;startFill=1;" edge="1" source="gYxAc6ppp29BtzVol7dR-145" target="gYxAc6ppp29BtzVol7dR-143" parent="1">
          <mxGeometry relative="1" as="geometry" />
        </mxCell>
        <mxCell id="gYxAc6ppp29BtzVol7dR-145" value="4" style="rounded=0;whiteSpace=wrap;html=1;shadow=0;strokeColor=#82b366;strokeWidth=1;fontFamily=Ubuntu;fontSize=16;fontStyle=0;fillColor=#d5e8d4;" vertex="1" parent="1">
          <mxGeometry x="480" y="1040" width="40" height="40" as="geometry" />
        </mxCell>
        <mxCell id="gYxAc6ppp29BtzVol7dR-146" style="edgeStyle=orthogonalEdgeStyle;rounded=1;orthogonalLoop=1;jettySize=auto;html=1;shadow=0;strokeColor=#6c8ebf;strokeWidth=1;fontFamily=Ubuntu;fontSize=14;fontStyle=0;endArrow=block;endFill=1;fillColor=#dae8fc;" edge="1" source="gYxAc6ppp29BtzVol7dR-147" target="gYxAc6ppp29BtzVol7dR-145" parent="1">
          <mxGeometry relative="1" as="geometry" />
        </mxCell>
        <mxCell id="gYxAc6ppp29BtzVol7dR-147" value="pivot" style="text;html=1;align=center;verticalAlign=middle;whiteSpace=wrap;rounded=0;fontFamily=Ubuntu;fontSize=16;fontStyle=0;" vertex="1" parent="1">
          <mxGeometry x="470" y="980" width="60" height="30" as="geometry" />
        </mxCell>
        <mxCell id="gYxAc6ppp29BtzVol7dR-148" style="edgeStyle=orthogonalEdgeStyle;rounded=1;orthogonalLoop=1;jettySize=auto;html=1;shadow=0;strokeColor=#6c8ebf;strokeWidth=1;fontFamily=Ubuntu;fontSize=14;fontStyle=0;endArrow=block;endFill=1;fillColor=#dae8fc;entryX=0.5;entryY=0;entryDx=0;entryDy=0;" edge="1" source="gYxAc6ppp29BtzVol7dR-149" parent="1">
          <mxGeometry relative="1" as="geometry">
            <mxPoint x="380" y="1040" as="targetPoint" />
          </mxGeometry>
        </mxCell>
        <mxCell id="gYxAc6ppp29BtzVol7dR-149" value="i" style="text;html=1;align=center;verticalAlign=middle;whiteSpace=wrap;rounded=0;fontFamily=Ubuntu;fontSize=16;fontStyle=0;" vertex="1" parent="1">
          <mxGeometry x="360" y="980" width="40" height="30" as="geometry" />
        </mxCell>
        <mxCell id="gYxAc6ppp29BtzVol7dR-150" value="9 &amp;gt; 4" style="text;html=1;align=center;verticalAlign=middle;whiteSpace=wrap;rounded=0;fontFamily=Ubuntu;fontSize=16;fontStyle=0;" vertex="1" parent="1">
          <mxGeometry x="440" y="1100" width="90" height="30" as="geometry" />
        </mxCell>
        <mxCell id="gYxAc6ppp29BtzVol7dR-151" value="j = 3" style="text;html=1;align=center;verticalAlign=middle;whiteSpace=wrap;rounded=0;fontFamily=Ubuntu;fontSize=16;fontStyle=0;" vertex="1" parent="1">
          <mxGeometry x="240" y="1045" width="60" height="30" as="geometry" />
        </mxCell>
        <mxCell id="gYxAc6ppp29BtzVol7dR-152" value="不需要交换元素" style="text;html=1;align=center;verticalAlign=middle;whiteSpace=wrap;rounded=0;fontFamily=Ubuntu;fontSize=16;fontStyle=0;" vertex="1" parent="1">
          <mxGeometry x="550" y="1045" width="120" height="30" as="geometry" />
        </mxCell>
        <mxCell id="gYxAc6ppp29BtzVol7dR-153" value="1" style="rounded=0;whiteSpace=wrap;html=1;shadow=0;strokeColor=#6c8ebf;strokeWidth=1;fontFamily=Ubuntu;fontSize=16;fontStyle=0;fillColor=#dae8fc;" vertex="1" parent="1">
          <mxGeometry x="320" y="1240" width="40" height="40" as="geometry" />
        </mxCell>
        <mxCell id="gYxAc6ppp29BtzVol7dR-154" value="8" style="rounded=0;whiteSpace=wrap;html=1;shadow=0;strokeColor=#b85450;strokeWidth=1;fontFamily=Ubuntu;fontSize=16;fontStyle=0;fillColor=#f8cecc;" vertex="1" parent="1">
          <mxGeometry x="360" y="1240" width="40" height="40" as="geometry" />
        </mxCell>
        <mxCell id="gYxAc6ppp29BtzVol7dR-155" value="3" style="rounded=0;whiteSpace=wrap;html=1;shadow=0;strokeColor=#6c8ebf;strokeWidth=1;fontFamily=Ubuntu;fontSize=16;fontStyle=0;fillColor=#dae8fc;" vertex="1" parent="1">
          <mxGeometry x="400" y="1240" width="40" height="40" as="geometry" />
        </mxCell>
        <mxCell id="gYxAc6ppp29BtzVol7dR-156" value="9" style="rounded=0;whiteSpace=wrap;html=1;shadow=0;strokeColor=#6c8ebf;strokeWidth=1;fontFamily=Ubuntu;fontSize=16;fontStyle=0;fillColor=#dae8fc;" vertex="1" parent="1">
          <mxGeometry x="440" y="1240" width="40" height="40" as="geometry" />
        </mxCell>
        <mxCell id="gYxAc6ppp29BtzVol7dR-164" style="edgeStyle=orthogonalEdgeStyle;rounded=1;orthogonalLoop=1;jettySize=auto;html=1;entryX=0.5;entryY=1;entryDx=0;entryDy=0;shadow=0;strokeColor=#6c8ebf;strokeWidth=1;fontFamily=Ubuntu;fontSize=14;fontStyle=0;endArrow=block;endFill=1;fillColor=#dae8fc;exitX=0.5;exitY=1;exitDx=0;exitDy=0;startArrow=block;startFill=1;" edge="1" parent="1" source="gYxAc6ppp29BtzVol7dR-158" target="gYxAc6ppp29BtzVol7dR-154">
          <mxGeometry relative="1" as="geometry" />
        </mxCell>
        <mxCell id="gYxAc6ppp29BtzVol7dR-174" style="edgeStyle=orthogonalEdgeStyle;rounded=1;orthogonalLoop=1;jettySize=auto;html=1;entryX=0;entryY=0.5;entryDx=0;entryDy=0;shadow=0;strokeColor=#6c8ebf;strokeWidth=1;fontFamily=Ubuntu;fontSize=14;fontStyle=0;endArrow=block;endFill=1;fillColor=#dae8fc;" edge="1" parent="1" source="gYxAc6ppp29BtzVol7dR-158" target="gYxAc6ppp29BtzVol7dR-166">
          <mxGeometry relative="1" as="geometry" />
        </mxCell>
        <mxCell id="gYxAc6ppp29BtzVol7dR-158" value="4" style="rounded=0;whiteSpace=wrap;html=1;shadow=0;strokeColor=#82b366;strokeWidth=1;fontFamily=Ubuntu;fontSize=16;fontStyle=0;fillColor=#d5e8d4;" vertex="1" parent="1">
          <mxGeometry x="480" y="1240" width="40" height="40" as="geometry" />
        </mxCell>
        <mxCell id="gYxAc6ppp29BtzVol7dR-159" style="edgeStyle=orthogonalEdgeStyle;rounded=1;orthogonalLoop=1;jettySize=auto;html=1;shadow=0;strokeColor=#6c8ebf;strokeWidth=1;fontFamily=Ubuntu;fontSize=14;fontStyle=0;endArrow=block;endFill=1;fillColor=#dae8fc;" edge="1" source="gYxAc6ppp29BtzVol7dR-160" target="gYxAc6ppp29BtzVol7dR-158" parent="1">
          <mxGeometry relative="1" as="geometry" />
        </mxCell>
        <mxCell id="gYxAc6ppp29BtzVol7dR-160" value="pivot" style="text;html=1;align=center;verticalAlign=middle;whiteSpace=wrap;rounded=0;fontFamily=Ubuntu;fontSize=16;fontStyle=0;" vertex="1" parent="1">
          <mxGeometry x="470" y="1180" width="60" height="30" as="geometry" />
        </mxCell>
        <mxCell id="gYxAc6ppp29BtzVol7dR-161" style="edgeStyle=orthogonalEdgeStyle;rounded=1;orthogonalLoop=1;jettySize=auto;html=1;shadow=0;strokeColor=#6c8ebf;strokeWidth=1;fontFamily=Ubuntu;fontSize=14;fontStyle=0;endArrow=block;endFill=1;fillColor=#dae8fc;entryX=0.5;entryY=0;entryDx=0;entryDy=0;" edge="1" source="gYxAc6ppp29BtzVol7dR-162" parent="1">
          <mxGeometry relative="1" as="geometry">
            <mxPoint x="380" y="1240" as="targetPoint" />
          </mxGeometry>
        </mxCell>
        <mxCell id="gYxAc6ppp29BtzVol7dR-162" value="i" style="text;html=1;align=center;verticalAlign=middle;whiteSpace=wrap;rounded=0;fontFamily=Ubuntu;fontSize=16;fontStyle=0;" vertex="1" parent="1">
          <mxGeometry x="360" y="1180" width="40" height="30" as="geometry" />
        </mxCell>
        <mxCell id="gYxAc6ppp29BtzVol7dR-165" value="swap(i, pivot)" style="text;html=1;align=center;verticalAlign=middle;whiteSpace=wrap;rounded=0;fontFamily=Ubuntu;fontSize=16;fontStyle=0;" vertex="1" parent="1">
          <mxGeometry x="540" y="1230" width="120" height="30" as="geometry" />
        </mxCell>
        <mxCell id="gYxAc6ppp29BtzVol7dR-166" value="1" style="rounded=0;whiteSpace=wrap;html=1;shadow=0;strokeColor=#6c8ebf;strokeWidth=1;fontFamily=Ubuntu;fontSize=16;fontStyle=0;fillColor=#dae8fc;" vertex="1" parent="1">
          <mxGeometry x="680" y="1240" width="40" height="40" as="geometry" />
        </mxCell>
        <mxCell id="gYxAc6ppp29BtzVol7dR-167" value="4" style="rounded=0;whiteSpace=wrap;html=1;shadow=0;strokeColor=#82b366;strokeWidth=1;fontFamily=Ubuntu;fontSize=16;fontStyle=0;fillColor=#d5e8d4;" vertex="1" parent="1">
          <mxGeometry x="720" y="1240" width="40" height="40" as="geometry" />
        </mxCell>
        <mxCell id="gYxAc6ppp29BtzVol7dR-168" value="3" style="rounded=0;whiteSpace=wrap;html=1;shadow=0;strokeColor=#6c8ebf;strokeWidth=1;fontFamily=Ubuntu;fontSize=16;fontStyle=0;fillColor=#dae8fc;" vertex="1" parent="1">
          <mxGeometry x="760" y="1240" width="40" height="40" as="geometry" />
        </mxCell>
        <mxCell id="gYxAc6ppp29BtzVol7dR-169" value="9" style="rounded=0;whiteSpace=wrap;html=1;shadow=0;strokeColor=#6c8ebf;strokeWidth=1;fontFamily=Ubuntu;fontSize=16;fontStyle=0;fillColor=#dae8fc;" vertex="1" parent="1">
          <mxGeometry x="800" y="1240" width="40" height="40" as="geometry" />
        </mxCell>
        <mxCell id="gYxAc6ppp29BtzVol7dR-170" value="8" style="rounded=0;whiteSpace=wrap;html=1;shadow=0;strokeColor=#6c8ebf;strokeWidth=1;fontFamily=Ubuntu;fontSize=16;fontStyle=0;fillColor=#dae8fc;" vertex="1" parent="1">
          <mxGeometry x="840" y="1240" width="40" height="40" as="geometry" />
        </mxCell>
        <mxCell id="gYxAc6ppp29BtzVol7dR-172" style="edgeStyle=orthogonalEdgeStyle;rounded=1;orthogonalLoop=1;jettySize=auto;html=1;shadow=0;strokeColor=#6c8ebf;strokeWidth=1;fontFamily=Ubuntu;fontSize=14;fontStyle=0;endArrow=block;endFill=1;fillColor=#dae8fc;entryX=0.5;entryY=0;entryDx=0;entryDy=0;" edge="1" parent="1">
          <mxGeometry relative="1" as="geometry">
            <mxPoint x="740" y="1210" as="sourcePoint" />
            <mxPoint x="740" y="1240" as="targetPoint" />
          </mxGeometry>
        </mxCell>
        <mxCell id="gYxAc6ppp29BtzVol7dR-173" value="pivot" style="text;html=1;align=center;verticalAlign=middle;whiteSpace=wrap;rounded=0;fontFamily=Ubuntu;fontSize=16;fontStyle=0;" vertex="1" parent="1">
          <mxGeometry x="710" y="1180" width="60" height="30" as="geometry" />
        </mxCell>
      </root>
    </mxGraphModel>
  </diagram>
</mxfile>
